<svg width="62" height="62" viewBox="0 0 82 82" fill="none" xmlns="http://www.w3.org/2000/svg">
<g clip-path="url(#clip0_19_63)">
<path fill-rule="evenodd" clip-rule="evenodd" d="M79.6619 62.7136C79.6619 67.183 77.8864 71.4694 74.7261 74.6297C71.5658 77.7901 67.2794 79.5655 62.81 79.5655C58.3406 79.5655 54.0543 77.7901 50.8939 74.6297C47.7336 71.4694 45.9581 67.183 45.9581 62.7136C45.9581 58.2442 47.7336 53.9579 50.8939 50.7976C54.0543 47.6372 58.3406 45.8618 62.81 45.8618C67.2794 45.8618 71.5658 47.6372 74.7261 50.7976C77.8864 53.9579 79.6619 58.2442 79.6619 62.7136V62.7136Z" stroke="#0F9AFE" stroke-width="4.04445" stroke-linejoin="round"/>
<path d="M71.2359 62.7137H54.384M62.81 54.2877V71.1396V54.2877Z" stroke="#0F9AFE" stroke-width="4.04445" stroke-linecap="round" stroke-linejoin="round"/>
<path d="M47.5253 45.1286C44.9133 44.2607 42.0822 43.3338 39.2173 42.2385V33.8125C39.2173 33.8125 44.2729 31.7313 44.2729 23.7014C46.9102 23.7014 46.9102 16.7247 44.2729 16.7247C44.2729 15.9495 47.0535 11.3152 45.9581 6.8495C44.3572 0.445778 25.6516 0.445778 24.0506 6.85792C16.0713 5.25699 20.6803 15.899 20.6803 16.9691C18.0429 16.9691 18.0429 23.7098 20.6803 23.7098C20.6803 31.7397 25.7358 33.8209 25.7358 33.8209V42.2469C16.3746 45.8111 5.21866 48.1703 3.82838 52.358C2.22745 57.1777 2.14319 66.0839 2.14319 66.0839H37.5322" stroke="#0F9AFE" stroke-width="4.04445" stroke-linejoin="round"/>
</g>
<defs>
<clipPath id="clip0_19_63">
<rect width="80.8891" height="80.8891" fill="white" transform="translate(0.458008 0.361572)"/>
</clipPath>
</defs>
</svg>
