<svg width="81" height="30" viewBox="0 0 81 30" fill="none" xmlns="http://www.w3.org/2000/svg">
<path d="M5.8355 30H0.3005V0.356998H5.8355V30ZM16.0881 11.55C16.5117 11.1263 16.9559 10.7368 17.4206 10.3815C17.8989 10.0125 18.3977 9.705 18.9171 9.459C19.4501 9.19933 20.0172 9.00117 20.6186 8.8645C21.2199 8.71417 21.8759 8.639 22.5866 8.639C23.7346 8.639 24.7527 8.83717 25.6411 9.2335C26.5294 9.61617 27.2674 10.1628 27.8551 10.8735C28.4564 11.5705 28.9074 12.411 29.2081 13.395C29.5224 14.3653 29.6796 15.4382 29.6796 16.6135V30H24.6161V16.6135C24.6161 15.3288 24.3222 14.338 23.7346 13.641C23.1469 12.9303 22.2517 12.575 21.0491 12.575C20.1744 12.575 19.3544 12.7732 18.5891 13.1695C17.8237 13.5658 17.0994 14.1057 16.4161 14.789V30H11.3526V8.967H14.4481C15.1041 8.967 15.5346 9.2745 15.7396 9.8895L16.0881 11.55ZM50.9566 18.807L47.3486 8.9465C47.171 8.50917 46.9865 7.98983 46.7951 7.3885C46.6038 6.78717 46.4125 6.138 46.2211 5.441C46.0435 6.138 45.859 6.794 45.6676 7.409C45.4763 8.01033 45.2918 8.5365 45.1141 8.9875L41.5266 18.807H50.9566ZM60.6941 30H56.4301C55.9518 30 55.5623 29.8838 55.2616 29.6515C54.961 29.4055 54.7355 29.1048 54.5851 28.7495L52.3711 22.702H40.0916L37.8776 28.7495C37.7683 29.0638 37.5565 29.3508 37.2421 29.6105C36.9278 29.8702 36.5383 30 36.0736 30H31.7686L43.4331 0.356998H49.0501L60.6941 30ZM80.2037 8.967L71.8602 30H67.2682L58.9247 8.967H63.1067C63.4894 8.967 63.8037 9.05583 64.0497 9.2335C64.3094 9.41117 64.4802 9.63667 64.5622 9.91L68.6212 21.144C68.8399 21.8 69.0312 22.4423 69.1952 23.071C69.3592 23.6997 69.5027 24.3283 69.6257 24.957C69.7624 24.3283 69.9127 23.6997 70.0767 23.071C70.2407 22.4423 70.4389 21.8 70.6712 21.144L74.8122 9.91C74.9079 9.63667 75.0787 9.41117 75.3247 9.2335C75.5707 9.05583 75.8646 8.967 76.2062 8.967H80.2037Z" fill="url(#paint0_linear_29_2)"/>
<defs>
<linearGradient id="paint0_linear_29_2" x1="-3" y1="44" x2="84" y2="44" gradientUnits="userSpaceOnUse">
<stop stop-color="#087592"/>
<stop offset="1" stop-color="#81D0DF"/>
</linearGradient>
</defs>
</svg>
