<svg width="62" height="62" viewBox="0 0 82 82" fill="none" xmlns="http://www.w3.org/2000/svg">
<path d="M36.2259 42.2975L29.6789 35.7506L26.1147 39.3147L36.2259 49.4259L56.4481 29.2036L52.884 25.6394L36.2259 42.2975Z" fill="#0F9AFE"/>
<path d="M41.2815 76.1951L25.6699 67.8711C21.2194 65.5034 17.4975 61.9684 14.9039 57.6455C12.3103 53.3227 10.9428 48.3752 10.9481 43.3339V10.4727C10.9495 9.13233 11.4825 7.84721 12.4304 6.89939C13.3782 5.95158 14.6633 5.41851 16.0037 5.41718H66.5594C67.8998 5.41851 69.1849 5.95158 70.1327 6.89939C71.0805 7.84721 71.6136 9.13233 71.6149 10.4727V43.3339C71.6203 48.3752 70.2528 53.3227 67.6592 57.6455C65.0655 61.9684 61.3437 65.5034 56.8931 67.8711L41.2815 76.1951ZM16.0037 10.4727V43.3339C15.9995 47.4588 17.1187 51.5069 19.2412 55.0438C21.3637 58.5806 24.4093 61.4727 28.0511 63.4096L41.2815 70.4646L54.512 63.4121C58.1542 61.4751 61.2 58.5826 63.3225 55.0452C65.445 51.5079 66.564 47.4592 66.5594 43.3339V10.4727H16.0037Z" fill="#0F9AFE"/>
</svg>
