<svg width="62" height="62" viewBox="0 0 82 82" fill="none" xmlns="http://www.w3.org/2000/svg">
<path d="M50.6217 50.3376C48.0935 52.865 44.6651 54.2848 41.0902 54.2848C37.5154 54.2848 34.087 52.865 31.5588 50.3376H50.6217ZM30.9791 34.0654H31.0128H30.9791ZM51.2014 34.0654H51.2351H51.2014ZM71.4236 40.8062C71.4236 44.7896 70.6391 48.734 69.1147 52.4142C67.5903 56.0945 65.3559 59.4384 62.5392 62.2551C59.7225 65.0718 56.3785 67.3062 52.6983 68.8306C49.0181 70.355 45.0737 71.1396 41.0902 71.1396C37.1068 71.1396 33.1624 70.355 29.4821 68.8306C25.8019 67.3062 22.458 65.0718 19.6413 62.2551C16.8246 59.4384 14.5902 56.0945 13.0658 52.4142C11.5414 48.734 10.7568 44.7896 10.7568 40.8062C10.7568 32.7612 13.9527 25.0458 19.6413 19.3572C25.3299 13.6686 33.0453 10.4727 41.0902 10.4727C49.1352 10.4727 56.8506 13.6686 62.5392 19.3572C68.2278 25.0458 71.4236 32.7612 71.4236 40.8062Z" stroke="#0F9AFE" stroke-width="5.39261" stroke-linecap="round" stroke-linejoin="round"/>
</svg>
